HIERARCHY
ROOT Hips
{
	OFFSET 0.000000 0.000000 0.000000
	CHANNELS 6 Xposition Yposition Zposition Zrotation Yrotation Xrotation 
	JOINT LeftUpLeg_virtual
	{
		OFFSET 0.000000 0.000000 0.000000
		CHANNELS 3 Zrotation Yrotation Xrotation
		JOINT LeftUpLeg
		{
			OFFSET 8.479694 -4.795517 -0.379053
			CHANNELS 3 Zrotation Yrotation Xrotation
			JOINT LeftLeg
			{
				OFFSET 0.485052 -32.551468 0.112863
				CHANNELS 3 Zrotation Yrotation Xrotation
				JOINT LeftFoot
				{
					OFFSET 0.438033 -32.635670 -3.012641
					CHANNELS 3 Zrotation Yrotation Xrotation
					JOINT LeftToeBase
					{
						OFFSET 0.970169 -13.225353 11.864223
						CHANNELS 3 Zrotation Yrotation Xrotation
						End Site
						{
							OFFSET 0.000000 0.000000 0.000000
						}
					}
				}
			}
		}
	}
	JOINT RightUpLeg_virtual
	{
		OFFSET 0.000000 0.000000 0.000000
		CHANNELS 3 Zrotation Yrotation Xrotation
		JOINT RightUpLeg
		{
			OFFSET -8.479694 -4.795517 -0.379053
			CHANNELS 3 Zrotation Yrotation Xrotation
			JOINT RightLeg
			{
				OFFSET -0.484100 -32.551483 0.112903
				CHANNELS 3 Zrotation Yrotation Xrotation
				JOINT RightFoot
				{
					OFFSET -0.438985 -32.635651 -3.012681
					CHANNELS 3 Zrotation Yrotation Xrotation
					JOINT RightToeBase
					{
						OFFSET -0.970169 -13.225354 11.864223
						CHANNELS 3 Zrotation Yrotation Xrotation
						End Site
						{
							OFFSET 0.000000 0.000000 0.000000
						}
					}
				}
			}
		}
	}
	JOINT Spine_virtual
	{
		OFFSET 0.000000 0.000000 0.000000
		CHANNELS 3 Zrotation Yrotation Xrotation
		JOINT Spine
		{
			OFFSET 0.000000 7.722015 1.166203
			CHANNELS 3 Zrotation Yrotation Xrotation
			JOINT Spine1
			{
				OFFSET 0.000000 12.024086 0.248766
				CHANNELS 3 Zrotation Yrotation Xrotation
				JOINT Spine2
				{
					OFFSET -0.000000 11.503036 -0.491240
					CHANNELS 3 Zrotation Yrotation Xrotation
					JOINT Neck_virtual
					{
						OFFSET 0.000000 0.000000 0.000000
						CHANNELS 3 Zrotation Yrotation Xrotation
						JOINT Neck
						{
							OFFSET 0.000000 18.430687 -3.123054
							CHANNELS 3 Zrotation Yrotation Xrotation
							JOINT Head
							{
								OFFSET -0.000000 9.051071 1.034021
								CHANNELS 3 Zrotation Yrotation Xrotation
								End Site
								{
									OFFSET 0.000000 0.000000 0.000000
								}
							}
						}
					}
					JOINT LeftShoulder_virtual
					{
						OFFSET 0.000000 0.000000 0.000000
						CHANNELS 3 Zrotation Yrotation Xrotation
						JOINT LeftShoulder
						{
							OFFSET 6.197824 13.665230 -4.064723
							CHANNELS 3 Zrotation Yrotation Xrotation
							JOINT LeftArm
							{
								OFFSET 7.778132 -0.187073 -1.709282
								CHANNELS 3 Zrotation Yrotation Xrotation
								JOINT LeftForeArm
								{
									OFFSET 21.954697 0.000000 -2.041093
									CHANNELS 3 Zrotation Yrotation Xrotation
									JOINT LeftHand
									{
										OFFSET 22.992908 0.000000 -0.870901
										CHANNELS 3 Zrotation Yrotation Xrotation
										End Site
										{
											OFFSET 0.000000 0.000000 0.000000
										}
									}
								}
							}
						}
					}
					JOINT RightShoulder_virtual
					{
						OFFSET 0.000000 0.000000 0.000000
						CHANNELS 3 Zrotation Yrotation Xrotation
						JOINT RightShoulder
						{
							OFFSET -6.197824 13.665230 -4.064723
							CHANNELS 3 Zrotation Yrotation Xrotation
							JOINT RightArm
							{
								OFFSET -7.778132 -0.187073 -1.709282
								CHANNELS 3 Zrotation Yrotation Xrotation
								JOINT RightForeArm
								{
									OFFSET -21.954697 0.000000 -2.041093
									CHANNELS 3 Zrotation Yrotation Xrotation
									JOINT RightHand
									{
										OFFSET -22.992908 0.000000 -0.870901
										CHANNELS 3 Zrotation Yrotation Xrotation
										End Site
										{
											OFFSET 0.000000 0.000000 0.000000
										}
									}
								}
							}
						}
					}
				}
			}
		}
	}
}
MOTION
Frames: 9
Frame Time: 0.033333
-18.584448 61.996235 83.655281 -179.995552 -2.535103 179.979446 3.205869 -6.202274 -10.775250 5.324034 14.580980 -59.428909 13.252477 7.099396 61.818615 -4.696659 -12.873015 -0.827468 0.000000 0.000000 0.000000 3.420534 -2.645821 -10.843714 4.598850 -3.425938 -76.703229 -2.903763 -0.038288 105.382695 -1.213715 15.625342 -3.909493 0.000000 0.000000 0.000000 1.030048 -1.385902 -9.055277 0.136372 -0.071634 2.963861 -1.164883 -1.221737 11.196799 -0.023110 0.009393 -0.011006 -1.222791 -1.099513 11.705227 1.879081 -3.549155 -3.710721 0.000000 0.000000 0.000000 1.197207 -0.494031 7.713607 -8.750456 -7.672281 5.071672 -53.009617 -47.891026 16.445233 1.149419 -27.347914 6.916224 0.000000 0.000000 0.000000 -3.791050 1.200996 6.558011 27.532675 10.031373 3.300927 69.643744 30.430255 16.549480 -159.505927 61.293421 -164.480681 0.000000 0.000000 0.000000 
-18.690536 62.161919 83.375999 -179.980908 -2.810229 179.990142 2.988237 -6.190236 -10.736201 5.531977 14.462280 -58.955673 13.216785 7.316257 60.856781 -4.608704 -12.830845 -0.258722 0.000000 0.000000 0.000000 3.194555 -2.601190 -10.567948 4.737511 -3.732339 -76.096203 -2.561909 0.157148 106.468306 -1.178103 15.726714 -3.942301 0.000000 0.000000 0.000000 0.760903 -1.311541 -9.008040 0.272726 -0.066832 3.011484 -1.017116 -1.275697 11.217690 0.027014 0.005079 0.002483 -1.159669 -1.247217 11.715908 1.976645 -3.619907 -3.738147 0.000000 0.000000 0.000000 1.252120 -0.558896 7.715949 -8.497558 -7.601756 5.230323 -53.658133 -47.247663 17.117067 0.855467 -27.594261 7.279722 0.000000 0.000000 0.000000 -3.707909 1.148270 6.526191 27.366968 10.006613 3.301398 69.833398 30.485689 16.162005 -159.555350 61.084649 -164.680601 0.000000 0.000000 0.000000 
-18.849167 62.304604 83.056190 179.880367 -3.050557 -179.995880 2.605875 -6.157287 -10.621118 5.701063 14.312674 -58.364506 13.087493 7.396485 60.191930 -4.653330 -13.022480 -0.235545 0.000000 0.000000 0.000000 2.867285 -2.566578 -10.322950 4.692763 -4.029474 -75.570593 -2.074332 0.257024 107.256093 -1.211349 15.729975 -4.449986 0.000000 0.000000 0.000000 0.475649 -1.208939 -8.994631 0.278691 -0.160430 3.097038 -0.930589 -1.282064 11.262623 -0.003729 0.030604 0.029801 -0.966908 -1.156237 11.701555 2.186100 -3.617452 -3.765118 0.000000 0.000000 0.000000 1.419065 -0.654702 7.654466 -8.300790 -7.575504 5.349409 -54.143835 -46.486732 17.777172 0.691683 -27.741898 7.482855 0.000000 0.000000 0.000000 -3.528772 1.077066 6.470014 27.134644 10.003555 3.406333 70.010682 30.624690 15.894835 -159.586865 60.835990 -164.798818 0.000000 0.000000 0.000000 
-19.076138 62.406818 82.735191 -179.886378 -3.167998 -179.962753 2.581894 -6.157524 -10.481729 5.812862 14.231830 -57.814150 12.933347 7.358351 59.808565 -4.616316 -13.454201 -1.248688 0.000000 0.000000 0.000000 2.794938 -2.445640 -9.990089 4.682506 -4.327590 -75.154661 -1.902139 0.367112 107.800917 -1.181626 15.851051 -5.458440 0.000000 0.000000 0.000000 0.533221 -1.258294 -9.029372 0.476201 -0.028800 3.219483 -0.824720 -1.397439 11.310675 -0.008174 -0.004453 0.001248 -0.993956 -1.475733 11.813980 2.313130 -3.569949 -3.800666 0.000000 0.000000 0.000000 1.407879 -0.665527 7.713736 -8.184682 -7.477575 5.467793 -54.360567 -45.859700 17.988521 0.481030 -27.746281 7.784578 0.000000 0.000000 0.000000 -3.509884 1.028317 6.612794 26.875232 10.115921 3.383364 70.282086 30.548373 15.854131 -159.771635 60.617594 -165.044992 0.000000 0.000000 0.000000 
-19.352886 62.463314 82.439003 179.924805 -3.241604 -179.920297 2.394016 -6.146666 -10.266212 5.758674 14.005479 -57.326440 12.776531 7.481763 59.694364 -4.682394 -13.563404 -2.856206 0.000000 0.000000 0.000000 2.557132 -2.458047 -9.799071 4.619258 -4.597504 -74.854680 -1.646399 0.570633 108.210885 -1.294519 15.810285 -6.565862 0.000000 0.000000 0.000000 0.409765 -1.207360 -9.030264 0.498100 0.105017 3.388956 -0.797879 -1.548615 11.393476 -0.003994 -0.060479 -0.008234 -0.889472 -1.387281 11.927013 2.542931 -3.574250 -3.860437 0.000000 0.000000 0.000000 1.490859 -0.723163 7.760771 -8.124817 -7.501700 5.578502 -54.277328 -45.425696 17.698239 0.271381 -27.653085 8.051085 0.000000 0.000000 0.000000 -3.420095 1.018394 6.667243 26.617030 10.155231 3.397112 70.453285 30.432109 15.689332 -159.949766 60.391235 -165.399560 0.000000 0.000000 0.000000 
-19.643021 62.473526 82.191994 179.953587 -3.169837 -179.866734 2.517049 -6.082198 -10.094053 5.646468 13.813874 -56.979477 12.511300 7.624022 59.493680 -4.463249 -13.622248 -3.879788 0.000000 0.000000 0.000000 2.499042 -2.444343 -9.573489 4.603363 -4.754819 -74.603096 -1.497843 0.683681 108.515252 -1.607381 15.808848 -8.259888 0.000000 0.000000 0.000000 0.504675 -1.252819 -8.982096 0.611017 0.100684 3.554774 -0.755952 -1.470964 11.514395 0.007553 0.028912 0.036340 -0.869734 -1.483669 11.994739 2.794475 -3.652950 -3.947145 0.000000 0.000000 0.000000 1.456573 -0.819566 7.846405 -8.097110 -7.563483 5.704441 -53.971656 -45.329619 17.112272 -0.013191 -27.525809 8.269129 0.000000 0.000000 0.000000 -3.405117 0.881528 6.735133 26.483789 10.136158 3.432631 70.574425 30.375948 15.523012 -160.142651 60.232071 -165.421663 0.000000 0.000000 0.000000 
-19.875021 62.448799 82.033882 179.979815 -3.038375 -179.843498 2.514104 -5.938440 -9.927731 5.613366 13.699043 -56.868900 12.359602 7.700063 59.504164 -4.349639 -13.588947 -5.073496 0.000000 0.000000 0.000000 2.478954 -2.511792 -9.266986 4.561961 -4.750756 -74.314097 -1.257954 0.798649 108.768235 -1.507097 15.962294 -9.535472 0.000000 0.000000 0.000000 0.608389 -1.237499 -8.798626 0.683534 0.282013 3.780308 -0.717578 -1.564871 11.603779 0.012116 -0.009914 0.017365 -0.834576 -1.653282 12.168084 3.003035 -3.618452 -4.071681 0.000000 0.000000 0.000000 1.451039 -0.881414 8.014381 -7.983265 -7.650174 5.745868 -53.510458 -45.296571 16.331703 -0.298374 -27.489696 8.509152 0.000000 0.000000 0.000000 -3.364712 0.845124 6.891955 26.367899 10.183643 3.317229 70.625536 30.225636 15.273536 -160.212401 60.102823 -165.683983 0.000000 0.000000 0.000000 
-20.002989 62.394657 81.980194 179.951155 -2.970649 -179.942153 2.485067 -5.697478 -9.845042 5.568273 13.605348 -56.873472 12.178465 7.879796 59.584391 -4.259519 -13.507776 -5.441642 0.000000 0.000000 0.000000 2.326493 -2.590349 -8.918108 4.654101 -4.823842 -73.970348 -0.941022 0.933065 108.769574 -1.171771 16.490247 -9.282904 0.000000 0.000000 0.000000 0.597499 -0.993518 -8.489506 0.680994 0.146882 4.092908 -0.690318 -1.590652 11.754185 -0.019949 0.004489 0.035689 -0.714168 -1.664454 12.248184 3.213396 -3.578060 -4.164309 0.000000 0.000000 0.000000 1.528793 -0.870997 8.092433 -7.734703 -7.862163 5.884658 -52.702190 -45.480082 15.201786 -0.599178 -27.567707 8.696424 0.000000 0.000000 0.000000 -3.254052 0.771962 6.963335 26.358414 10.240963 3.344623 70.575088 30.260333 14.936936 -160.215884 60.063399 -165.788280 0.000000 0.000000 0.000000 
-20.023762 62.320141 82.029305 179.942345 -2.837268 -179.857773 2.460824 -5.408206 -9.855569 5.467972 13.786816 -56.974836 11.944006 7.937495 59.547256 -4.365469 -13.301664 -5.515383 0.000000 0.000000 0.000000 2.369628 -2.462001 -8.706170 4.678500 -4.890286 -73.848060 -0.545592 0.993267 108.625184 -0.897063 16.818236 -8.200547 0.000000 0.000000 0.000000 0.563694 -0.770666 -8.287833 0.680308 0.147166 4.398880 -0.616490 -1.629486 11.809996 0.029118 0.028391 0.015032 -0.675076 -1.691609 12.431664 3.416607 -3.678721 -4.360941 0.000000 0.000000 0.000000 1.544060 -1.032827 8.218829 -7.454681 -7.921589 5.921188 -51.892021 -45.607407 14.092629 -0.950122 -27.733239 8.950592 0.000000 0.000000 0.000000 -3.207096 0.618728 7.199994 26.416817 10.410673 3.429780 70.547146 30.344731 14.825513 -160.257985 60.119755 -165.941112 0.000000 0.000000 0.000000 
